<svg width="200" xmlns="http://www.w3.org/2000/svg" height="60" id="screenshot-cb36e997-05e0-809c-8007-0f8d6b3ecf50" viewBox="0 0 200 60" xmlns:xlink="http://www.w3.org/1999/xlink" fill="none" version="1.1"><g id="shape-cb36e997-05e0-809c-8007-0f8d6b3ecf50" width="400" height="120" rx="0" ry="0" style="fill: rgb(0, 0, 0);"><g id="shape-cb36e997-05e0-809c-8007-0f8d6b3f5a71" style="display: none;"><g class="fills" id="fills-cb36e997-05e0-809c-8007-0f8d6b3f5a71"><rect width="200" height="60" x="0" transform="matrix(1.000000, 0.000000, 0.000000, 1.000000, 0.000000, 0.000000)" style="fill: none;" ry="0" fill="none" rx="0" y="0"/></g></g><g id="shape-cb36e997-05e0-809c-8007-0f8d6b3f5a72"><defs style="fill: rgb(0, 0, 0);"/></g><g id="shape-cb36e997-05e0-809c-8007-0f8d6b3fb087" filter="url(#render-4-a)" rx="0" ry="0" style="fill: rgb(0, 0, 0);"><defs><filter width="2" height="2" x="-0.5" id="render-4-a" data-old-y="-0.5" data-old-width="2" data-old-x="-0.5" y="-0.5" data-old-height="2"><feGaussianBlur in="SourceAlpha" stdDeviation="1.5" result="blur"/><feMerge><feMergeNode in="blur"/><feMergeNode in="SourceGraphic"/></feMerge></filter></defs><g id="shape-cb36e997-05e0-809c-8007-0f8d6b3fe393" style="opacity: 0.7;"><g class="fills" id="fills-cb36e997-05e0-809c-8007-0f8d6b3fe393"><path d="M100,6L112,10L120,18L124,30L120,42L112,50L100,54L88,50L80,42L76,30L80,18L88,10Z" fill="none" style="fill: none;"/></g><g fill="none" id="strokes-6f02da75-a8bd-8055-8007-2a37c09dde69-cb36e997-05e0-809c-8007-0f8d6b3fe393" class="strokes"><g class="stroke-shape"><path d="M100,6L112,10L120,18L124,30L120,42L112,50L100,54L88,50L80,42L76,30L80,18L88,10Z" style="fill: none; stroke-width: 0.8; stroke: rgb(136, 212, 152); stroke-opacity: 1;"/></g></g></g><g id="shape-cb36e997-05e0-809c-8007-0f8d6b3fe394" style="opacity: 0.85;"><g class="fills" id="fills-cb36e997-05e0-809c-8007-0f8d6b3fe394"><rect width="24" height="24" x="88" transform="matrix(0.927184, 0.374607, -0.374607, 0.927184, 18.519812, -35.276175)" style="fill: none;" ry="0" fill="none" rx="0" y="18"/></g><g fill="none" id="strokes-6f02da75-a8bd-8055-8007-2a37c09f4a24-cb36e997-05e0-809c-8007-0f8d6b3fe394" class="strokes"><g class="stroke-shape"><rect rx="0" ry="0" x="88" y="18" transform="matrix(0.927184, 0.374607, -0.374607, 0.927184, 18.519812, -35.276175)" width="24" height="24" style="fill: none; stroke-width: 1; stroke: rgb(177, 229, 166); stroke-opacity: 1;"/></g></g></g><g id="shape-cb36e997-05e0-809c-8007-0f8d6b3fe395"><defs><linearGradient id="render-7-b" x1="0" y1="0" x2="1" y2="1"><stop offset="0" stop-color="#c7f6ca"/><stop offset="1" stop-color="#b1e5a6"/></linearGradient></defs><g class="fills" id="fills-cb36e997-05e0-809c-8007-0f8d6b3fe395"><ellipse cx="100" cy="30" rx="8" ry="8" transform="matrix(1.000000, 0.000000, 0.000000, 1.000000, 0.000000, 0.000000)" fill="url(#render-7-b)" style="fill: url(&quot;#render-7-b&quot;);"/></g></g><g id="shape-cb36e997-05e0-809c-8007-0f8d6b3fe396" rx="0" ry="0" style="opacity: 0.8; fill: rgb(0, 0, 0);"><g id="shape-cb36e997-05e0-809c-8007-0f8d6b400cfe"><g class="fills" id="fills-cb36e997-05e0-809c-8007-0f8d6b400cfe"><path d="M100,30L135,15"/></g><g id="strokes-6f02da75-a8bd-8055-8007-2a37c0a1b29e-cb36e997-05e0-809c-8007-0f8d6b400cfe" class="strokes"><g class="stroke-shape"><path d="M100,30L135,15" style="fill: none; stroke-width: 0.7; stroke: rgb(107, 207, 127); stroke-opacity: 1;"/></g></g></g><g id="shape-cb36e997-05e0-809c-8007-0f8d6b400cff"><g class="fills" id="fills-cb36e997-05e0-809c-8007-0f8d6b400cff"><path d="M100,30L138,30"/></g><g id="strokes-6f02da75-a8bd-8055-8007-2a37c0a2b825-cb36e997-05e0-809c-8007-0f8d6b400cff" class="strokes"><g class="stroke-shape"><path d="M100,30L138,30" style="fill: none; stroke-width: 0.7; stroke: rgb(107, 207, 127); stroke-opacity: 1;"/></g></g></g><g id="shape-cb36e997-05e0-809c-8007-0f8d6b400d00"><g class="fills" id="fills-cb36e997-05e0-809c-8007-0f8d6b400d00"><path d="M100,30L135,45"/></g><g id="strokes-6f02da75-a8bd-8055-8007-2a37c0a2c3d5-cb36e997-05e0-809c-8007-0f8d6b400d00" class="strokes"><g class="stroke-shape"><path d="M100,30L135,45" style="fill: none; stroke-width: 0.7; stroke: rgb(107, 207, 127); stroke-opacity: 1;"/></g></g></g><g id="shape-cb36e997-05e0-809c-8007-0f8d6b400d01"><g class="fills" id="fills-cb36e997-05e0-809c-8007-0f8d6b400d01"><path d="M100,30L65,15"/></g><g id="strokes-6f02da75-a8bd-8055-8007-2a37c0a3354a-cb36e997-05e0-809c-8007-0f8d6b400d01" class="strokes"><g class="stroke-shape"><path d="M100,30L65,15" style="fill: none; stroke-width: 0.7; stroke: rgb(107, 207, 127); stroke-opacity: 1;"/></g></g></g><g id="shape-cb36e997-05e0-809c-8007-0f8d6b400d02"><g class="fills" id="fills-cb36e997-05e0-809c-8007-0f8d6b400d02"><path d="M100,30L62,30"/></g><g id="strokes-6f02da75-a8bd-8055-8007-2a37c0a41ce2-cb36e997-05e0-809c-8007-0f8d6b400d02" class="strokes"><g class="stroke-shape"><path d="M100,30L62,30" style="fill: none; stroke-width: 0.7; stroke: rgb(107, 207, 127); stroke-opacity: 1;"/></g></g></g><g id="shape-cb36e997-05e0-809c-8007-0f8d6b400d03"><g class="fills" id="fills-cb36e997-05e0-809c-8007-0f8d6b400d03"><path d="M100,30L65,45"/></g><g id="strokes-6f02da75-a8bd-8055-8007-2a37c0a4b532-cb36e997-05e0-809c-8007-0f8d6b400d03" class="strokes"><g class="stroke-shape"><path d="M100,30L65,45" style="fill: none; stroke-width: 0.7; stroke: rgb(107, 207, 127); stroke-opacity: 1;"/></g></g></g></g><g id="shape-cb36e997-05e0-809c-8007-0f8d6b400d04" rx="0" ry="0" style="fill: rgb(0, 0, 0);"><g id="shape-cb36e997-05e0-809c-8007-0f8d6b406378"><g class="fills" id="fills-cb36e997-05e0-809c-8007-0f8d6b406378"><ellipse cx="132" cy="16.499999999999773" rx="1.3999999999996362" ry="1.3999999999998636" transform="matrix(1.000000, 0.000000, 0.000000, 1.000000, 0.000000, 0.000000)" style="fill: rgb(199, 246, 202);"/></g></g><g id="shape-cb36e997-05e0-809c-8007-0f8d6b406379"><g class="fills" id="fills-cb36e997-05e0-809c-8007-0f8d6b406379"><ellipse cx="135" cy="29.999999999999773" rx="1.3999999999996362" ry="1.3999999999998636" transform="matrix(1.000000, 0.000000, 0.000000, 1.000000, 0.000000, 0.000000)" style="fill: rgb(199, 246, 202);"/></g></g><g id="shape-cb36e997-05e0-809c-8007-0f8d6b40637a"><g class="fills" id="fills-cb36e997-05e0-809c-8007-0f8d6b40637a"><ellipse cx="132" cy="43.49999999999977" rx="1.3999999999996362" ry="1.3999999999998636" transform="matrix(1.000000, 0.000000, 0.000000, 1.000000, 0.000000, 0.000000)" style="fill: rgb(199, 246, 202);"/></g></g><g id="shape-cb36e997-05e0-809c-8007-0f8d6b40637b"><g class="fills" id="fills-cb36e997-05e0-809c-8007-0f8d6b40637b"><ellipse cx="68" cy="16.499999999999773" rx="1.3999999999996362" ry="1.3999999999998636" transform="matrix(1.000000, 0.000000, 0.000000, 1.000000, 0.000000, 0.000000)" style="fill: rgb(199, 246, 202);"/></g></g><g id="shape-cb36e997-05e0-809c-8007-0f8d6b40637c"><g class="fills" id="fills-cb36e997-05e0-809c-8007-0f8d6b40637c"><ellipse cx="65" cy="29.999999999999773" rx="1.3999999999996362" ry="1.3999999999998636" transform="matrix(1.000000, 0.000000, 0.000000, 1.000000, 0.000000, 0.000000)" style="fill: rgb(199, 246, 202);"/></g></g><g id="shape-cb36e997-05e0-809c-8007-0f8d6b40637d"><g class="fills" id="fills-cb36e997-05e0-809c-8007-0f8d6b40637d"><ellipse cx="68" cy="43.49999999999977" rx="1.3999999999996362" ry="1.3999999999998636" transform="matrix(1.000000, 0.000000, 0.000000, 1.000000, 0.000000, 0.000000)" style="fill: rgb(199, 246, 202);"/></g></g></g></g><g id="shape-cb36e997-05e0-809c-8007-0f8d6b40637e"><defs><linearGradient id="render-22-c" x1="0" y1="0" x2="1" y2="0"><stop offset="0" stop-color="#b1e5a6" stop-opacity="0"/><stop offset="0.5" stop-color="#c7f6ca" stop-opacity=".7"/><stop offset="1" stop-color="#b1e5a6" stop-opacity="0"/></linearGradient></defs><g class="fills" id="fills-cb36e997-05e0-809c-8007-0f8d6b40637e"><rect width="140" height="2" x="30" transform="matrix(1.000000, 0.000000, 0.000000, 1.000000, 0.000000, 0.000000)" style="fill: url(&quot;#render-22-c&quot;);" ry="1" fill="url(#render-22-c)" rx="1" y="29"/></g></g><g id="shape-cb36e997-05e0-809c-8007-0f8d6b40637f" rx="0" ry="0" style="opacity: 0.25; fill: rgb(0, 0, 0);"><g id="shape-cb36e997-05e0-809c-8007-0f8d6b40b5ed"><g class="fills" id="fills-cb36e997-05e0-809c-8007-0f8d6b40b5ed"><ellipse cx="20" cy="10" rx="1" ry="1" transform="matrix(1.000000, 0.000000, 0.000000, 1.000000, 0.000000, 0.000000)" style="fill: rgb(177, 229, 166);"/></g></g><g id="shape-cb36e997-05e0-809c-8007-0f8d6b40b5ee"><g class="fills" id="fills-cb36e997-05e0-809c-8007-0f8d6b40b5ee"><ellipse cx="40" cy="50" rx="0.8000000000001819" ry="0.8000000000001819" transform="matrix(1.000000, 0.000000, 0.000000, 1.000000, 0.000000, 0.000000)" style="fill: rgb(199, 246, 202);"/></g></g><g id="shape-cb36e997-05e0-809c-8007-0f8d6b40b5ef"><g class="fills" id="fills-cb36e997-05e0-809c-8007-0f8d6b40b5ef"><ellipse cx="160" cy="8" rx="0.6999999999998181" ry="0.6999999999998181" transform="matrix(1.000000, 0.000000, 0.000000, 1.000000, 0.000000, 0.000000)" style="fill: rgb(136, 212, 152);"/></g></g><g id="shape-cb36e997-05e0-809c-8007-0f8d6b40b5f0"><g class="fills" id="fills-cb36e997-05e0-809c-8007-0f8d6b40b5f0"><ellipse cx="180" cy="44.99999999999977" rx="0.8999999999996362" ry="0.8999999999998636" transform="matrix(1.000000, 0.000000, 0.000000, 1.000000, 0.000000, 0.000000)" style="fill: rgb(107, 207, 127);"/></g></g><g id="shape-cb36e997-05e0-809c-8007-0f8d6b40b5f1" rx="0" ry="0" style="fill: rgb(0, 0, 0);"><g id="shape-cb36e997-05e0-809c-8007-0f8d6b40b5f2"><g class="fills" id="fills-cb36e997-05e0-809c-8007-0f8d6b40b5f2"><path d="M168,12L172,12"/></g><g id="strokes-6f02da75-a8bd-8055-8007-2a37c0ac3406-cb36e997-05e0-809c-8007-0f8d6b40b5f2" class="strokes"><g class="stroke-shape"><path d="M168,12L172,12" style="fill: none; stroke-width: 0.6; stroke: rgb(199, 246, 202); stroke-opacity: 1;"/></g></g></g><g id="shape-cb36e997-05e0-809c-8007-0f8d6b40b5f3"><g class="fills" id="fills-cb36e997-05e0-809c-8007-0f8d6b40b5f3"><path d="M170,10L170,14"/></g><g id="strokes-6f02da75-a8bd-8055-8007-2a37c0ad8525-cb36e997-05e0-809c-8007-0f8d6b40b5f3" class="strokes"><g class="stroke-shape"><path d="M170,10L170,14" style="fill: none; stroke-width: 0.6; stroke: rgb(199, 246, 202); stroke-opacity: 1;"/></g></g></g></g></g></g></svg>