<svg width="400" xmlns="http://www.w3.org/2000/svg" height="300" id="screenshot-51358297-9dfd-8018-8007-355d035f3b74" viewBox="0 0 400 300" xmlns:xlink="http://www.w3.org/1999/xlink" fill="none" version="1.1"><g id="shape-51358297-9dfd-8018-8007-355d035f3b74" width="400" height="300" rx="0" ry="0" style="fill: rgb(0, 0, 0);"><g id="shape-51358297-9dfd-8018-8007-355d03601248" style="display: none;"><g class="fills" id="fills-51358297-9dfd-8018-8007-355d03601248"><rect width="400" height="300" x="0" transform="matrix(1.000000, 0.000000, 0.000000, 1.000000, 0.000000, 0.000000)" style="fill: none;" ry="0" fill="none" rx="0" y="0"/></g></g><g id="shape-51358297-9dfd-8018-8007-355d03601249"><defs style="fill: rgb(0, 0, 0);"/></g><g id="shape-51358297-9dfd-8018-8007-355d03607771" style="opacity: 0.6;"><g class="fills" id="fills-51358297-9dfd-8018-8007-355d03607771"><path d="M120,170C140,150,180,160,200,150" fill="none" style="fill: none;"/></g><g fill="none" id="strokes-0c49f94c-0e94-8022-8007-356616fb5808-51358297-9dfd-8018-8007-355d03607771" class="strokes"><g class="stroke-shape"><path d="M120,170C140,150,180,160,200,150" style="fill: none; stroke-width: 1; stroke: rgb(177, 229, 166); stroke-opacity: 1;"/></g></g></g><g id="shape-51358297-9dfd-8018-8007-355d03607772" style="opacity: 0.5;"><g class="fills" id="fills-51358297-9dfd-8018-8007-355d03607772"><path d="M140,190C170,180,210,185,240,180" fill="none" style="fill: none;"/></g><g fill="none" id="strokes-0c49f94c-0e94-8022-8007-356616fc021c-51358297-9dfd-8018-8007-355d03607772" class="strokes"><g class="stroke-shape"><path d="M140,190C170,180,210,185,240,180" style="fill: none; stroke-width: 1; stroke: rgb(199, 246, 202); stroke-opacity: 1;"/></g></g></g><g id="shape-51358297-9dfd-8018-8007-355d03607773" style="opacity: 0.5;"><g class="fills" id="fills-51358297-9dfd-8018-8007-355d03607773"><path d="M160,130C190,140,220,135,240,145" fill="none" style="fill: none;"/></g><g fill="none" id="strokes-0c49f94c-0e94-8022-8007-356616fc4130-51358297-9dfd-8018-8007-355d03607773" class="strokes"><g class="stroke-shape"><path d="M160,130C190,140,220,135,240,145" style="fill: none; stroke-width: 0.8; stroke: rgb(177, 229, 166); stroke-opacity: 1;"/></g></g></g><g id="shape-51358297-9dfd-8018-8007-355d03607774"><text font-family="'Segoe UI', 'Helvetica Neue', Arial, sans-serif" x="195" transform="matrix(1.000000, 0.000000, 0.000000, 1.000000, 0.000000, 0.000000) " text-anchor="middle" style="fill: rgb(42, 55, 39);" font-weight="600" font-size="22" y="175" letter-spacing=".5"><tspan text-anchor="middle" font-size="22" font-weight="600" dy="-10" letter-spacing=".5" x="195" font-family="'Segoe UI', 'Helvetica Neue', Arial, sans-serif" style="fill: rgb(42, 55, 39);">Не</tspan><tspan text-anchor="middle" font-size="22" font-weight="600" dy="26" letter-spacing=".5" x="195" font-family="'Segoe UI', 'Helvetica Neue', Arial, sans-serif" style="fill: rgb(42, 55, 39);">обнаружено</tspan></text></g><g id="shape-51358297-9dfd-8018-8007-355d0360b3d1" style="opacity: 0.4;"><g class="fills" id="fills-51358297-9dfd-8018-8007-355d0360b3d1"><rect rx="8" ry="8" x="130" y="140" transform="matrix(1.000000, 0.000000, 0.000000, 1.000000, 0.000000, 0.000000)" width="130" height="40" style="fill: rgb(239, 255, 235);"/></g></g></g></svg>