<svg width="696" xmlns="http://www.w3.org/2000/svg" height="372" id="screenshot-7ec1f762-c78c-80e6-8007-16fe664ae56b" viewBox="0 -3.684 696 372" xmlns:xlink="http://www.w3.org/1999/xlink" fill="none" version="1.1"><g id="shape-7ec1f762-c78c-80e6-8007-16fe664ae56b" rx="0" ry="0"><g id="shape-cb36e997-05e0-809c-8007-0f9fb8bf05a0" width="240" height="120" rx="0" ry="0" style="fill: rgb(0, 0, 0);"><g id="shape-cb36e997-05e0-809c-8007-0f9fb8c01d35" rx="0" ry="0" style="fill: rgb(0, 0, 0);"><g id="shape-cb36e997-05e0-809c-8007-0f9fb8c051d0"><g class="fills" id="fills-cb36e997-05e0-809c-8007-0f9fb8c051d0"><path d="M431,60L438.5,62.5L443.5,67.5L446,75L443.5,82.5L438.5,87.5L431,90L423.5,87.5L418.5,82.5L416,75L418.5,67.5L423.5,60Z" fill="none" style="fill: none;"/></g><g fill="none" id="strokes-3c86a1e7-9e0e-8070-8007-2cb20e3920fd-cb36e997-05e0-809c-8007-0f9fb8c051d0" class="strokes"><g class="stroke-shape"><path d="M431,60L438.5,62.5L443.5,67.5L446,75L443.5,82.5L438.5,87.5L431,90L423.5,87.5L418.5,82.5L416,75L418.5,67.5L423.5,60Z" style="fill: none; stroke-width: 1; stroke: rgb(107, 207, 127); stroke-opacity: 1;"/></g></g></g><g id="shape-cb36e997-05e0-809c-8007-0f9fb8c051d1"><g class="fills" id="fills-cb36e997-05e0-809c-8007-0f9fb8c051d1"><ellipse cx="431" cy="75" rx="5" ry="5" transform="matrix(1.000000, 0.000000, 0.000000, 1.000000, 0.000000, 0.000000)" style="fill: rgb(177, 229, 166);"/></g></g></g><g id="shape-cb36e997-05e0-809c-8007-0f9fb8c0bc71"><text x="40" y="35" font-family="monospace" font-size="11" font-weight="600" transform="matrix(2.500000, 0.000000, 0.000000, 2.500000, 396.000000, 0.000000) " style="fill: rgb(107, 207, 127);">GPS: 55.75, 37.62</text></g></g><g id="shape-cb36e997-05e0-809c-8007-0ff4a571d0cd"><g class="fills" id="fills-cb36e997-05e0-809c-8007-0ff4a571d0cd"><path d="M416.1025390625,79.205322265625L385.03076171875,94.6044921875L0,285.4254150390625" stroke-linecap="round"/></g><g stroke-linecap="round" id="strokes-3c86a1e7-9e0e-8070-8007-2cb20e3ad49e-cb36e997-05e0-809c-8007-0ff4a571d0cd" class="strokes"><g class="stroke-shape"><path d="M416.1025390625,79.205322265625L385.03076171875,94.6044921875L0,285.4254150390625" style="fill: none; stroke-width: 2; stroke: rgb(199, 246, 202); stroke-opacity: 1;"/></g></g></g></g></svg>